<svg width="43" height="19" viewBox="0 0 43 19" fill="none" xmlns="http://www.w3.org/2000/svg">
<path fill-rule="evenodd" clip-rule="evenodd" d="M8.00822 2.90522C7.51598 3.49172 6.72839 3.95431 5.9408 3.88822C5.84236 3.09522 6.22795 2.25264 6.67917 1.73223C7.17141 1.12921 8.03284 0.699668 8.73018 0.666626C8.81222 1.49268 8.49226 2.30221 8.00822 2.90522ZM8.72191 4.04517C8.02806 4.00496 7.39495 4.25527 6.88357 4.45746C6.55449 4.58757 6.27581 4.69775 6.0638 4.69775C5.82588 4.69775 5.5357 4.58168 5.2099 4.45135C4.78299 4.28059 4.29491 4.08536 3.78308 4.09473C2.6099 4.11125 1.51876 4.78035 0.919864 5.84596C-0.310743 7.97716 0.599906 11.1327 1.78949 12.8674C2.37198 13.7265 3.06932 14.6682 3.98818 14.6351C4.39242 14.6198 4.6832 14.4955 4.98414 14.367C5.3306 14.2189 5.69052 14.0652 6.25249 14.0652C6.79499 14.0652 7.13916 14.2149 7.46955 14.3587C7.78369 14.4954 8.08537 14.6267 8.53322 14.6186C9.48489 14.6021 10.0838 13.7595 10.6663 12.9004C11.2949 11.9784 11.5711 11.0786 11.613 10.942L11.6179 10.9262C11.6169 10.9252 11.6092 10.9216 11.5955 10.9153C11.3853 10.8184 9.77923 10.0781 9.76383 8.09281C9.74836 6.42648 11.0378 5.58222 11.2407 5.44932C11.2531 5.44123 11.2614 5.43577 11.2652 5.43293C10.4448 4.21038 9.16493 4.07821 8.72191 4.04517ZM15.3098 14.5277V1.64963H20.1092C22.5868 1.64963 24.3179 3.36781 24.3179 5.879C24.3179 8.39019 22.554 10.1249 20.0436 10.1249H17.2952V14.5277H15.3098ZM17.295 3.33476H19.584C21.3068 3.33476 22.2913 4.25994 22.2913 5.88726C22.2913 7.51457 21.3068 8.44801 19.5758 8.44801H17.295V3.33476ZM30.873 12.983C30.3479 13.9908 29.1912 14.6269 27.9442 14.6269C26.0982 14.6269 24.8102 13.52 24.8102 11.8513C24.8102 10.1992 26.0572 9.24929 28.3626 9.10886L30.8402 8.96017V8.24977C30.8402 7.20069 30.1592 6.63071 28.945 6.63071C27.9442 6.63071 27.214 7.15112 27.0663 7.94413H25.2778C25.3353 6.27551 26.894 5.06122 29.0025 5.06122C31.275 5.06122 32.7517 6.25899 32.7517 8.1176V14.5277H30.914V12.983H30.873ZM28.4773 13.0987C27.419 13.0987 26.7462 12.5865 26.7462 11.8018C26.7462 10.9922 27.3943 10.5214 28.6332 10.4471L30.84 10.3066V11.0335C30.84 12.2396 29.8227 13.0987 28.4773 13.0987ZM38.8473 15.0316C38.0515 17.2868 37.1408 18.0302 35.2047 18.0302C35.057 18.0302 34.5647 18.0137 34.4499 17.9806V16.4359C34.5729 16.4525 34.8765 16.469 35.0324 16.469C35.9102 16.469 36.4024 16.0973 36.706 15.1308L36.8865 14.5608L33.5228 5.18513H35.5984L37.9366 12.7931H37.9776L40.3158 5.18513H42.334L38.8473 15.0316Z" fill="#212121"/>
</svg>
