<svg width="156" height="156" viewBox="0 0 156 156" fill="none" xmlns="http://www.w3.org/2000/svg">
<path d="M22.4641 47.0598L25.0366 48.6032L22.4641 47.0598ZM32.9409 29.5985L35.5134 31.142V31.142L32.9409 29.5985ZM123.059 29.5985L120.487 31.142V31.142L123.059 29.5985ZM133.536 47.0597L130.963 48.6032L133.536 47.0597ZM113.594 20.1162L112.682 22.974V22.974L113.594 20.1162ZM118.224 22.7374L120.205 20.4845V20.4844L118.224 22.7374ZM37.7761 22.7374L39.7571 24.9903L39.7571 24.9903L37.7761 22.7374ZM42.4057 20.1162L41.4931 17.2583L41.4931 17.2583L42.4057 20.1162ZM136.33 53.5024L133.369 53.9866V53.9866L136.33 53.5024ZM135.581 50.7994L138.369 49.6915L138.369 49.6914L135.581 50.7994ZM129.402 135.083L128.04 132.41H128.04L129.402 135.083ZM135.083 129.402L132.41 128.04V128.04L135.083 129.402ZM20.9169 129.402L18.2439 130.764H18.2439L20.9169 129.402ZM26.5981 135.083L27.9601 132.41H27.9601L26.5981 135.083ZM19.6705 53.5024L16.7098 53.0181L19.6705 53.5024ZM20.4191 50.7994L17.6313 49.6914H17.6313L20.4191 50.7994ZM26 49C24.3431 49 23 50.3431 23 52C23 53.6569 24.3431 55 26 55V49ZM130 55C131.657 55 133 53.6569 133 52C133 50.3431 131.657 49 130 49V55ZM100.5 78C100.5 76.3431 99.1569 75 97.5 75C95.8431 75 94.5 76.3431 94.5 78H100.5ZM61.5 78C61.5 76.3431 60.1569 75 58.5 75C56.8431 75 55.5 76.3431 55.5 78H61.5ZM16.5 57.7613V115.7H22.5V57.7613H16.5ZM40.3 139.5H115.7V133.5H40.3V139.5ZM139.5 115.7V57.7613H133.5V115.7H139.5ZM25.0366 48.6032L35.5134 31.142L30.3684 28.055L19.8917 45.5163L25.0366 48.6032ZM50.7768 22.5H105.223V16.5H50.7768V22.5ZM120.487 31.142L130.963 48.6032L136.108 45.5163L125.632 28.055L120.487 31.142ZM105.223 22.5C109.716 22.5 111.303 22.5337 112.682 22.974L114.507 17.2583C112.027 16.4663 109.319 16.5 105.223 16.5V22.5ZM125.632 28.055C123.524 24.5425 122.16 22.2037 120.205 20.4845L116.243 24.9903C117.33 25.9459 118.175 27.2895 120.487 31.142L125.632 28.055ZM112.682 22.974C113.995 23.3934 115.207 24.0799 116.243 24.9903L120.205 20.4844C118.548 19.0278 116.608 17.9294 114.507 17.2583L112.682 22.974ZM35.5134 31.142C37.8248 27.2895 38.6703 25.9459 39.7571 24.9903L35.7951 20.4845C33.8399 22.2037 32.4759 24.5425 30.3684 28.055L35.5134 31.142ZM50.7768 16.5C46.6805 16.5 43.9732 16.4663 41.4931 17.2583L43.3183 22.974C44.6969 22.5337 46.2841 22.5 50.7768 22.5V16.5ZM39.7571 24.9903C40.7925 24.0799 42.005 23.3934 43.3183 22.974L41.4931 17.2583C39.3917 17.9294 37.4517 19.0278 35.7951 20.4845L39.7571 24.9903ZM139.5 57.7613C139.5 55.7111 139.509 54.3561 139.29 53.0181L133.369 53.9866C133.491 54.7332 133.5 55.5226 133.5 57.7613H139.5ZM130.963 48.6032C132.115 50.5229 132.514 51.2044 132.793 51.9074L138.369 49.6914C137.868 48.4315 137.163 47.2743 136.108 45.5163L130.963 48.6032ZM139.29 53.0181C139.104 51.8792 138.795 50.7639 138.369 49.6915L132.793 51.9074C133.059 52.5777 133.252 53.2748 133.369 53.9866L139.29 53.0181ZM115.7 139.5C119.291 139.5 122.164 139.502 124.483 139.313C126.836 139.121 128.88 138.716 130.764 137.756L128.04 132.41C127.143 132.867 125.976 133.171 123.994 133.333C121.977 133.498 119.39 133.5 115.7 133.5V139.5ZM133.5 115.7C133.5 119.39 133.498 121.977 133.333 123.994C133.171 125.976 132.867 127.143 132.41 128.04L137.756 130.764C138.716 128.88 139.121 126.836 139.313 124.483C139.502 122.164 139.5 119.291 139.5 115.7H133.5ZM130.764 137.756C133.774 136.222 136.222 133.774 137.756 130.764L132.41 128.04C131.451 129.922 129.922 131.451 128.04 132.41L130.764 137.756ZM16.5 115.7C16.5 119.291 16.4977 122.164 16.6871 124.483C16.8793 126.836 17.284 128.88 18.2439 130.764L23.5899 128.04C23.1329 127.143 22.8291 125.976 22.6672 123.994C22.5023 121.977 22.5 119.39 22.5 115.7H16.5ZM40.3 133.5C36.6102 133.5 34.0232 133.498 32.0059 133.333C30.0237 133.171 28.8571 132.867 27.9601 132.41L25.2362 137.756C27.12 138.716 29.164 139.121 31.5173 139.313C33.8356 139.502 36.7092 139.5 40.3 139.5V133.5ZM18.2439 130.764C19.7779 133.774 22.2256 136.222 25.2362 137.756L27.9601 132.41C26.0785 131.451 24.5487 129.922 23.5899 128.04L18.2439 130.764ZM22.5 57.7613C22.5 55.5226 22.509 54.7332 22.6311 53.9866L16.7098 53.0181C16.491 54.3561 16.5 55.7111 16.5 57.7613H22.5ZM19.8917 45.5163C18.8369 47.2743 18.132 48.4315 17.6313 49.6914L23.207 51.9074C23.4864 51.2044 23.8848 50.5229 25.0366 48.6032L19.8917 45.5163ZM22.6311 53.9866C22.7476 53.2748 22.9407 52.5777 23.207 51.9074L17.6313 49.6914C17.205 50.7639 16.8961 51.8792 16.7098 53.0181L22.6311 53.9866ZM26 55H130V49H26V55ZM94.5 78C94.5 87.1127 87.1127 94.5 78 94.5V100.5C90.4264 100.5 100.5 90.4264 100.5 78H94.5ZM78 94.5C68.8873 94.5 61.5 87.1127 61.5 78H55.5C55.5 90.4264 65.5736 100.5 78 100.5V94.5Z" fill="#121212"/>
</svg>
