<svg width="20" height="20" viewBox="0 0 20 20" fill="none" xmlns="http://www.w3.org/2000/svg">
<path d="M1.45602 5.23996L2.31352 5.75446L1.45602 5.23996ZM3.06783 2.55361L3.92532 3.06811V3.06811L3.06783 2.55361ZM16.9322 2.55361L16.0747 3.06811L16.0747 3.06811L16.9322 2.55361ZM18.544 5.23996L17.6865 5.75446L18.544 5.23996ZM15.476 1.09479L15.1718 2.0474L15.1718 2.0474L15.476 1.09479ZM16.1883 1.49806L16.8486 0.747085L16.8486 0.747084L16.1883 1.49806ZM3.81171 1.49806L4.47205 2.24903V2.24903L3.81171 1.49806ZM4.52395 1.09479L4.21974 0.142189L4.21974 0.142189L4.52395 1.09479ZM18.9738 6.23113L17.9869 6.39255L17.9869 6.39256L18.9738 6.23113ZM18.8586 5.8153L19.7879 5.44597L19.7879 5.44596L18.8586 5.8153ZM17.908 18.782L17.454 17.891H17.454L17.908 18.782ZM18.782 17.908L17.891 17.454V17.454L18.782 17.908ZM1.21799 17.908L0.32698 18.362H0.326981L1.21799 17.908ZM2.09202 18.782L2.54601 17.891L2.54601 17.891L2.09202 18.782ZM1.02623 6.23113L0.0393409 6.06972L1.02623 6.23113ZM1.14141 5.8153L0.212111 5.44596H0.212111L1.14141 5.8153ZM2 5C1.44772 5 1 5.44772 1 6C1 6.55228 1.44772 7 2 7V5ZM18 7C18.5523 7 19 6.55228 19 6C19 5.44772 18.5523 5 18 5V7ZM14 10C14 9.44771 13.5523 9 13 9C12.4477 9 12 9.44771 12 10H14ZM8 10C8 9.44771 7.55228 9 7 9C6.44772 9 6 9.44771 6 10H8ZM0 6.88635V15.8H2V6.88635H0ZM4.2 20H15.8V18H4.2V20ZM20 15.8V6.88635H18V15.8H20ZM2.31352 5.75446L3.92532 3.06811L2.21034 2.03912L0.59853 4.72547L2.31352 5.75446ZM5.81181 2H14.1882V0H5.81181V2ZM16.0747 3.06811L17.6865 5.75446L19.4015 4.72547L17.7897 2.03912L16.0747 3.06811ZM14.1882 2C14.915 2 15.0586 2.01124 15.1718 2.0474L15.7803 0.142189C15.2998 -0.0112352 14.7828 0 14.1882 0V2ZM17.7897 2.03912C17.4837 1.52925 17.2274 1.08011 16.8486 0.747085L15.528 2.24903C15.6172 2.32752 15.7008 2.44492 16.0747 3.06811L17.7897 2.03912ZM15.1718 2.0474C15.3032 2.08934 15.4244 2.15799 15.528 2.24903L16.8486 0.747084C16.538 0.473961 16.1743 0.268016 15.7803 0.142188L15.1718 2.0474ZM3.92532 3.06811C4.29924 2.44492 4.38278 2.32752 4.47205 2.24903L3.15138 0.747085C2.77264 1.08011 2.51626 1.52925 2.21034 2.03912L3.92532 3.06811ZM5.81181 0C5.2172 0 4.70017 -0.0112351 4.21974 0.142189L4.82817 2.0474C4.9414 2.01124 5.08505 2 5.81181 2V0ZM4.47205 2.24903C4.57558 2.15799 4.69683 2.08934 4.82817 2.0474L4.21974 0.142189C3.82573 0.268016 3.46199 0.47396 3.15138 0.747085L4.47205 2.24903ZM20 6.88635C20 6.58786 20.003 6.32864 19.9607 6.06971L17.9869 6.39256C17.997 6.45433 18 6.52502 18 6.88635H20ZM17.6865 5.75446C17.8724 6.06429 17.9062 6.12646 17.9293 6.18464L19.7879 5.44596C19.691 5.20215 19.555 4.98142 19.4015 4.72547L17.6865 5.75446ZM19.9607 6.06972C19.9257 5.85618 19.8678 5.64705 19.7879 5.44597L17.9293 6.18462C17.9559 6.25166 17.9752 6.32137 17.9869 6.39255L19.9607 6.06972ZM15.8 20C16.3436 20 16.8114 20.0008 17.195 19.9694C17.5904 19.9371 17.9836 19.8658 18.362 19.673L17.454 17.891C17.4045 17.9162 17.3038 17.9539 17.0322 17.9761C16.7488 17.9992 16.3766 18 15.8 18V20ZM18 15.8C18 16.3766 17.9992 16.7488 17.9761 17.0322C17.9539 17.3038 17.9162 17.4045 17.891 17.454L19.673 18.362C19.8658 17.9836 19.9371 17.5904 19.9694 17.195C20.0008 16.8114 20 16.3436 20 15.8H18ZM18.362 19.673C18.9265 19.3854 19.3854 18.9265 19.673 18.362L17.891 17.454C17.7951 17.6422 17.6422 17.7951 17.454 17.891L18.362 19.673ZM0 15.8C0 16.3436 -0.000777721 16.8114 0.0305694 17.195C0.0628704 17.5904 0.134186 17.9836 0.32698 18.362L2.10899 17.454C2.0838 17.4045 2.04612 17.3038 2.02393 17.0322C2.00078 16.7488 2 16.3766 2 15.8H0ZM4.2 18C3.62345 18 3.25117 17.9992 2.96784 17.9761C2.69617 17.9539 2.59545 17.9162 2.54601 17.891L1.63803 19.673C2.01641 19.8658 2.40963 19.9371 2.80497 19.9694C3.18864 20.0008 3.65645 20 4.2 20V18ZM0.326981 18.362C0.6146 18.9265 1.07354 19.3854 1.63803 19.673L2.54601 17.891C2.35785 17.7951 2.20487 17.6422 2.10899 17.454L0.326981 18.362ZM2 6.88635C2 6.52502 2.00301 6.45433 2.01311 6.39255L0.0393409 6.06972C-0.00300884 6.32864 0 6.58786 0 6.88635H2ZM0.59853 4.72547C0.444959 4.98142 0.309011 5.20215 0.212111 5.44596L2.0707 6.18463C2.09382 6.12646 2.12761 6.06429 2.31352 5.75446L0.59853 4.72547ZM2.01311 6.39255C2.02476 6.32137 2.04407 6.25166 2.0707 6.18463L0.212111 5.44596C0.132195 5.64704 0.0742679 5.85618 0.0393409 6.06972L2.01311 6.39255ZM2 7H18V5H2V7ZM12 10C12 11.1046 11.1046 12 10 12V14C12.2091 14 14 12.2091 14 10H12ZM10 12C8.89543 12 8 11.1046 8 10H6C6 12.2091 7.79086 14 10 14V12Z" fill="#121212"/>
</svg>
