<svg width="40" height="40" viewBox="0 0 40 40" fill="none" xmlns="http://www.w3.org/2000/svg">
<path d="M19.9993 20.833C18.4523 20.833 16.9685 21.4476 15.8746 22.5416C14.7806 23.6355 14.166 25.1192 14.166 26.6663C14.166 28.2134 14.7806 29.6972 15.8746 30.7911C16.9685 31.8851 18.4523 32.4997 19.9993 32.4997C21.5464 32.4997 23.0302 31.8851 24.1241 30.7911C25.2181 29.6972 25.8327 28.2134 25.8327 26.6663C25.8327 25.1192 25.2181 23.6355 24.1241 22.5416C23.0302 21.4476 21.5464 20.833 19.9993 20.833ZM17.4993 26.6663C17.4993 26.0033 17.7627 25.3674 18.2316 24.8986C18.7004 24.4297 19.3363 24.1663 19.9993 24.1663C20.6624 24.1663 21.2983 24.4297 21.7671 24.8986C22.236 25.3674 22.4993 26.0033 22.4993 26.6663C22.4993 27.3294 22.236 27.9653 21.7671 28.4341C21.2983 28.9029 20.6624 29.1663 19.9993 29.1663C19.3363 29.1663 18.7004 28.9029 18.2316 28.4341C17.7627 27.9653 17.4993 27.3294 17.4993 26.6663Z" fill="#121212"/>
<path d="M29.21 8.52697L23.9117 1.09863L4.43 16.662L3.35 16.6503V16.667H2.5V36.667H37.5V16.667H35.8967L32.7067 7.3353L29.21 8.52697ZM32.375 16.667H15.6617L28.11 12.4236L30.6467 11.612L32.375 16.667ZM25.9167 9.6503L13.0667 14.0303L23.2433 5.9003L25.9167 9.6503ZM5.83333 30.282V23.0486C6.53696 22.8003 7.17608 22.3976 7.70384 21.8702C8.2316 21.3427 8.63462 20.7038 8.88333 20.0003H31.1167C31.3652 20.7041 31.7681 21.3433 32.2959 21.8711C32.8236 22.3989 33.4629 22.8018 34.1667 23.0503V30.2836C33.4629 30.5321 32.8236 30.9351 32.2959 31.4628C31.7681 31.9906 31.3652 32.6298 31.1167 33.3336H8.88667C8.63697 32.6298 8.23327 31.9905 7.70503 31.4626C7.17679 30.9346 6.53734 30.5313 5.83333 30.282Z" fill="#121212"/>
</svg>
