<svg width="42" height="43" viewBox="0 0 42 43" fill="none" xmlns="http://www.w3.org/2000/svg">
<path d="M32.052 9.23187L25.694 0.317871L2.316 18.9939L1.02 18.9799V18.9999H0V42.9999H42V18.9999H40.076L36.248 7.80187L32.052 9.23187ZM35.85 18.9999H15.794L30.732 13.9079L33.776 12.9339L35.85 18.9999ZM28.1 10.5799L12.68 15.8359L24.892 6.07987L28.1 10.5799ZM4 35.3379V26.6579C4.84435 26.3599 5.6113 25.8767 6.24461 25.2437C6.87792 24.6107 7.36154 23.8441 7.66 22.9999H34.34C34.6382 23.8444 35.1217 24.6115 35.755 25.2448C36.3884 25.8782 37.1554 26.3617 38 26.6599V35.3399C37.1554 35.6381 36.3884 36.1216 35.755 36.7549C35.1217 37.3882 34.6382 38.1553 34.34 38.9999H7.664C7.36437 38.1552 6.87993 37.3881 6.24604 36.7546C5.61215 36.1211 4.8448 35.637 4 35.3379Z" fill="#121212"/>
</svg>
