<svg width="20" height="20" viewBox="0 0 20 20" fill="none" xmlns="http://www.w3.org/2000/svg">
<path d="M10.0014 6.6665V9.99984L11.4447 10.8332M1.88413 11.8938C1.74273 11.2853 1.66797 10.6513 1.66797 9.99984C1.66797 9.34836 1.74273 8.71434 1.88413 8.1059M8.48615 1.80391C8.97748 1.71366 9.48388 1.6665 10.0013 1.6665C14.6037 1.6665 18.3346 5.39746 18.3346 9.99984C18.3346 14.6022 14.6037 18.3332 10.0013 18.3332C9.48388 18.3332 8.97748 18.286 8.48615 18.1958M5.83464 2.78136C4.69799 3.43887 3.73106 4.35715 3.01564 5.45438M3.01564 14.5453C3.73106 15.6425 4.69799 16.5608 5.83464 17.2183"  stroke-linecap="round"/>
</svg>
