<svg width="192" height="189" viewBox="0 0 192 189" fill="none" xmlns="http://www.w3.org/2000/svg">
<path d="M22.5363 80.0598L25.1066 81.6069L22.5363 80.0598ZM33.0474 62.5985L35.6176 64.1457L33.0474 62.5985ZM123.46 62.5985L120.89 64.1457V64.1457L123.46 62.5985ZM133.971 80.0597L131.401 81.6069L133.971 80.0597ZM113.965 53.1162L113.055 55.9748V55.9748L113.965 53.1162ZM118.609 55.7374L120.587 53.4812V53.4812L118.609 55.7374ZM37.8984 55.7374L39.8758 57.9935L39.8758 57.9935L37.8984 55.7374ZM42.5431 53.1162L41.6332 50.2575V50.2575L42.5431 53.1162ZM136.774 86.5024L133.814 86.9882L133.814 86.9882L136.774 86.5024ZM136.023 83.7994L138.81 82.6883L138.81 82.6883L136.023 83.7994ZM129.824 168.083L128.466 165.408V165.408L129.824 168.083ZM135.524 162.402L132.853 161.036L135.524 162.402ZM20.9841 162.402L18.3128 163.767H18.3128L20.9841 162.402ZM26.6838 168.083L28.0423 165.408L28.0423 165.408L26.6838 168.083ZM19.7335 86.5024L16.7731 86.0166V86.0166L19.7335 86.5024ZM20.4847 83.7994L17.698 82.6883H17.698L20.4847 83.7994ZM26.0838 82C24.4269 82 23.0838 83.3431 23.0838 85C23.0838 86.6569 24.4269 88 26.0838 88V82ZM130.424 88C132.081 88 133.424 86.6569 133.424 85C133.424 83.3431 132.081 82 130.424 82V88ZM100.818 111C100.818 109.343 99.4746 108 97.8177 108C96.1609 108 94.8177 109.343 94.8177 111H100.818ZM61.6901 111C61.6901 109.343 60.347 108 58.6901 108C57.0332 108 55.6901 109.343 55.6901 111H61.6901ZM16.5625 90.7613V148.7H22.5625V90.7613H16.5625ZM40.4306 172.5H116.077V166.5H40.4306V172.5ZM139.945 148.7V90.7613H133.945V148.7H139.945ZM25.1066 81.6069L35.6176 64.1457L30.4771 61.0513L19.9661 78.5126L25.1066 81.6069ZM50.9416 55.5H105.566V49.5H50.9416V55.5ZM120.89 64.1457L131.401 81.6069L136.542 78.5126L126.031 61.0513L120.89 64.1457ZM105.566 55.5C110.072 55.5 111.668 55.5335 113.055 55.9748L114.875 50.2575C112.39 49.4665 109.677 49.5 105.566 49.5V55.5ZM126.031 61.0513C123.916 57.5385 122.548 55.2 120.587 53.4812L116.632 57.9935C117.723 58.9496 118.571 60.2935 120.89 64.1457L126.031 61.0513ZM113.055 55.9748C114.375 56.395 115.593 57.0824 116.632 57.9935L120.587 53.4812C118.925 52.0252 116.981 50.9278 114.875 50.2575L113.055 55.9748ZM35.6176 64.1457C37.9365 60.2936 38.7848 58.9496 39.8758 57.9935L35.9211 53.4812C33.9601 55.1999 32.5917 57.5385 30.4771 61.0513L35.6176 64.1457ZM50.9416 49.5C46.8308 49.5 44.1182 49.4665 41.6332 50.2575L43.4531 55.9748C44.8395 55.5335 46.4354 55.5 50.9416 55.5V49.5ZM39.8758 57.9935C40.9153 57.0824 42.1331 56.395 43.4531 55.9748L41.6332 50.2575C39.5272 50.9278 37.5824 52.0252 35.9211 53.4812L39.8758 57.9935ZM139.945 90.7613C139.945 88.7114 139.954 87.3555 139.735 86.0166L133.814 86.9882C133.936 87.7338 133.945 88.5223 133.945 90.7613H139.945ZM131.401 81.6069C132.557 83.5267 132.956 84.208 133.237 84.9106L138.81 82.6883C138.307 81.4279 137.6 80.2704 136.542 78.5126L131.401 81.6069ZM139.735 86.0166C139.548 84.877 139.238 83.7611 138.81 82.6883L133.237 84.9105C133.504 85.5804 133.697 86.277 133.814 86.9882L139.735 86.0166ZM116.077 172.5C119.68 172.5 122.562 172.502 124.887 172.313C127.247 172.121 129.295 171.716 131.182 170.758L128.466 165.408C127.563 165.867 126.39 166.171 124.4 166.333C122.375 166.498 119.779 166.5 116.077 166.5V172.5ZM133.945 148.7C133.945 152.39 133.943 154.976 133.778 156.993C133.615 158.975 133.311 160.14 132.853 161.036L138.195 163.767C139.158 161.883 139.565 159.838 139.758 157.483C139.948 155.165 139.945 152.291 139.945 148.7H133.945ZM131.182 170.758C134.2 169.225 136.656 166.779 138.195 163.767L132.853 161.036C131.891 162.917 130.356 164.448 128.466 165.408L131.182 170.758ZM16.5625 148.7C16.5625 152.291 16.5602 155.165 16.7502 157.483C16.9432 159.838 17.3494 161.883 18.3128 163.767L23.6553 161.036C23.1972 160.14 22.8926 158.975 22.7302 156.993C22.5648 154.976 22.5625 152.39 22.5625 148.7H16.5625ZM40.4306 166.5C36.729 166.5 34.1326 166.498 32.1077 166.333C30.1176 166.171 28.9447 165.867 28.0423 165.408L25.3254 170.758C27.2129 171.716 29.2611 172.121 31.6207 172.313C33.9456 172.502 36.8276 172.5 40.4306 172.5V166.5ZM18.3128 163.767C19.8522 166.779 22.3076 169.225 25.3254 170.758L28.0423 165.408C26.1519 164.448 24.6167 162.917 23.6553 161.036L18.3128 163.767ZM22.5625 90.7613C22.5625 88.5223 22.5716 87.7338 22.6939 86.9882L16.7731 86.0166C16.5534 87.3555 16.5625 88.7114 16.5625 90.7613H22.5625ZM19.9661 78.5126C18.9079 80.2704 18.2006 81.4279 17.698 82.6883L23.2713 84.9106C23.5514 84.208 23.951 83.5267 25.1066 81.6069L19.9661 78.5126ZM22.6939 86.9882C22.8106 86.277 23.0042 85.5804 23.2713 84.9106L17.698 82.6883C17.2702 83.7611 16.9601 84.877 16.7731 86.0166L22.6939 86.9882ZM26.0838 88H130.424V82H26.0838V88ZM94.8177 111C94.8177 120.103 87.4111 127.5 78.2539 127.5V133.5C90.7063 133.5 100.818 123.436 100.818 111H94.8177ZM78.2539 127.5C69.0967 127.5 61.6901 120.103 61.6901 111H55.6901C55.6901 123.436 65.8015 133.5 78.2539 133.5V127.5Z" fill="#121212"/>
<path fill-rule="evenodd" clip-rule="evenodd" d="M144.852 27.6338C139.462 17.6484 127.951 12.8307 117.285 18.6689C106.619 24.5071 102.587 37.1923 107.712 47.8555C111.972 56.7212 126.357 76.5634 131.086 83.001C131.615 83.7212 131.879 84.0813 132.236 84.2763C132.547 84.4465 132.911 84.5236 133.264 84.4943C133.67 84.4607 134.058 84.2389 134.835 83.7954C141.782 79.8314 163.02 67.5363 170.53 61.1644C179.563 53.5006 181.229 40.229 173.695 30.6201C166.161 21.0111 153.851 20.6968 144.852 27.6338Z" fill="#0047FF" stroke="#0047FF" stroke-width="2" stroke-linecap="round" stroke-linejoin="round"/>
</svg>
