<svg width="20" height="20" viewBox="0 0 46 48" fill="none" xmlns="http://www.w3.org/2000/svg">
<path d="M6 20H2M8 26H4M4.72232 37.6192C12.244 47.1614 26.077 48.7994 35.6192 41.2777C45.1614 33.7561 46.7993 19.9231 39.2777 10.3809C31.756 0.838694 17.923 -0.799282 8.38084 6.72237M10 14H10.7654C12.0539 14 13.1356 14.9607 13.2754 16.2289L14.2991 25.5211C14.4388 26.7894 15.5206 27.75 16.809 27.75H27.7319C28.886 27.75 29.8932 26.9751 30.1784 25.8678L31.9204 19.1039C32.3275 17.5232 31.1214 15.9861 29.4739 15.9861H14.5447M14.5759 32.2812H15.5227M14.5759 33.2187H15.5227M28.4625 32.2812H29.4093M28.4625 33.2187H29.4093M16.3121 32.75C16.3121 33.4404 15.7469 34 15.0496 34C14.3524 34 13.7872 33.4404 13.7872 32.75C13.7872 32.0597 14.3524 31.5 15.0496 31.5C15.7469 31.5 16.3121 32.0597 16.3121 32.75ZM30.1986 32.75C30.1986 33.4404 29.6334 34 28.9362 34C28.239 34 27.6738 33.4404 27.6738 32.75C27.6738 32.0597 28.239 31.5 28.9362 31.5C29.6334 31.5 30.1986 32.0597 30.1986 32.75Z" stroke="#999999" stroke-width="4" stroke-linecap="round"/>
</svg>
