<svg width="24" height="24" viewBox="0 0 24 24" fill="none" xmlns="http://www.w3.org/2000/svg">
<path d="M4.97656 11.2812V10.9609C4.97656 10.513 5.11719 10.1432 5.39844 9.85156C5.6849 9.5599 6.07292 9.41406 6.5625 9.41406C7.05729 9.41406 7.44792 9.5599 7.73438 9.85156C8.02083 10.1432 8.16406 10.513 8.16406 10.9609V11.2812C8.16406 11.724 8.02083 12.0911 7.73438 12.3828C7.45312 12.6693 7.0651 12.8125 6.57031 12.8125C6.08073 12.8125 5.69271 12.6693 5.40625 12.3828C5.11979 12.0911 4.97656 11.724 4.97656 11.2812ZM10.3828 11.2812V10.9609C10.3828 10.513 10.5234 10.1432 10.8047 9.85156C11.0911 9.5599 11.4792 9.41406 11.9688 9.41406C12.4635 9.41406 12.8542 9.5599 13.1406 9.85156C13.4271 10.1432 13.5703 10.513 13.5703 10.9609V11.2812C13.5703 11.724 13.4271 12.0911 13.1406 12.3828C12.8594 12.6693 12.4714 12.8125 11.9766 12.8125C11.487 12.8125 11.099 12.6693 10.8125 12.3828C10.526 12.0911 10.3828 11.724 10.3828 11.2812ZM15.7891 11.2812V10.9609C15.7891 10.513 15.9297 10.1432 16.2109 9.85156C16.4974 9.5599 16.8854 9.41406 17.375 9.41406C17.8698 9.41406 18.2604 9.5599 18.5469 9.85156C18.8333 10.1432 18.9766 10.513 18.9766 10.9609V11.2812C18.9766 11.724 18.8333 12.0911 18.5469 12.3828C18.2656 12.6693 17.8776 12.8125 17.3828 12.8125C16.8932 12.8125 16.5052 12.6693 16.2188 12.3828C15.9323 12.0911 15.7891 11.724 15.7891 11.2812Z" fill="#121212"/>
</svg>
