<svg width="20" height="20" viewBox="0 0 20 20" fill="none" xmlns="http://www.w3.org/2000/svg">
<path d="M3.33398 4.16667H13.334M13.334 4.16667C13.334 5.08714 14.0802 5.83333 15.0007 5.83333C15.9211 5.83333 16.6673 5.08714 16.6673 4.16667C16.6673 3.24619 15.9211 2.5 15.0007 2.5C14.0802 2.5 13.334 3.24619 13.334 4.16667ZM6.66732 10H16.6673M6.66732 10C6.66732 10.9205 5.92113 11.6667 5.00065 11.6667C4.08018 11.6667 3.33398 10.9205 3.33398 10C3.33398 9.07953 4.08018 8.33333 5.00065 8.33333C5.92113 8.33333 6.66732 9.07953 6.66732 10ZM3.33398 15.8333H13.334M13.334 15.8333C13.334 16.7538 14.0802 17.5 15.0007 17.5C15.9211 17.5 16.6673 16.7538 16.6673 15.8333C16.6673 14.9129 15.9211 14.1667 15.0007 14.1667C14.0802 14.1667 13.334 14.9129 13.334 15.8333Z" stroke="#212121" stroke-width="2" stroke-linecap="round"/>
</svg>
