<svg width="25" height="24" viewBox="0 0 25 24" fill="none" xmlns="http://www.w3.org/2000/svg">
<g clip-path="url(#clip0_1567_13796)">
<path fill-rule="evenodd" clip-rule="evenodd" d="M17.3426 6.54769C16.1036 5.36599 14.4501 4.72223 12.7392 4.74868C9.60863 4.74868 6.94981 6.86074 6.0018 9.70474V9.7048C5.49913 11.1952 5.49913 12.809 6.00179 14.2993H6.00619C6.95861 17.1389 9.61303 19.251 12.7437 19.251C14.3597 19.251 15.747 18.8376 16.8223 18.1076V18.1046C18.0878 17.2668 18.952 15.9484 19.221 14.4581H12.7393V9.8371H24.058C24.1991 10.6396 24.2653 11.4597 24.2653 12.2755C24.2653 15.9253 22.9609 19.0111 20.6913 21.1011L20.6937 21.1029C18.7051 22.9372 15.9757 23.9998 12.7392 23.9998C8.20204 23.9998 4.05286 21.4424 2.01575 17.3903V17.3902C0.313757 13.9995 0.313761 10.0046 2.01576 6.61386H2.01579L2.01575 6.61383C4.05286 2.55725 8.20204 -0.000167897 12.7392 -0.000167897C15.72 -0.0354426 18.5992 1.08453 20.7686 3.12164L17.3426 6.54769Z" fill="#121212"/>
</g>
<defs>
<clipPath id="clip0_1567_13796">
<rect width="24" height="24" fill="white" transform="translate(0.5)"/>
</clipPath>
</defs>
</svg>
