<svg width="155" height="18" viewBox="0 0 155 18" fill="none" xmlns="http://www.w3.org/2000/svg">
<path d="M11.928 17H7.704V3.776H0.672V0.199999H18.984V3.776H11.928V17ZM22.0686 17H17.8206V5H22.4046L21.9246 9.464H22.1646C22.7886 6.008 24.6366 4.616 28.7166 4.616V8.192C24.0846 8.192 22.0686 9.104 22.0686 12.968V17ZM36.4273 17.384C32.0833 17.384 29.2033 14.84 29.2033 11C29.2033 7.16 32.0833 4.616 36.4273 4.616C40.7233 4.616 43.5793 6.8 43.6513 10.064V12.032H33.4033C33.7873 13.472 35.1073 14.144 37.6273 14.144C40.5553 14.144 41.7553 13.4 43.1233 12.824V16.208C41.0593 16.976 39.6433 17.384 36.4273 17.384ZM33.3073 10.352L39.5713 10.208C39.4753 8.744 38.1553 7.952 36.4273 7.952C34.7953 7.952 33.5233 8.816 33.3073 10.352ZM49.8186 17H45.5706V5H50.1546L49.6746 9.944H49.8906C50.4666 6.32 52.1466 4.616 55.8666 4.616C59.2266 4.664 60.7626 6.128 60.7626 11.792V17H56.5146V12.2C56.5146 8.864 55.6506 7.808 53.5386 7.808C51.3066 7.808 49.8186 10.064 49.8186 13.28V17ZM69.1018 17.384C65.3338 17.384 62.7658 14.792 62.7658 10.904C62.7658 7.136 65.3578 4.616 68.9098 4.616C71.8378 4.616 74.2858 6.2 74.8378 8.888H74.9338V0.199999H79.1578V17H74.8378L75.3658 13.088H75.0778C74.5498 15.632 72.1498 17.384 69.1018 17.384ZM70.5898 14.024C72.5098 14.024 74.3818 13.016 74.3818 10.952C74.3818 8.936 72.5098 7.952 70.5898 7.952C68.5738 7.952 66.8458 8.936 66.8458 10.952C66.8458 13.016 68.5738 14.024 70.5898 14.024ZM91.6406 17H86.6966L80.4806 0.199999H85.2086L89.1206 11.216L92.6486 0.199999H97.2326L100.761 11.216L104.673 0.199999H109.401L103.185 17H98.2166L94.9526 7.136L91.6406 17ZM112.675 17.384C110.899 17.384 108.211 17 108.211 14.216C108.211 11.192 112.939 10.304 118.315 9.92C118.315 8.72 117.331 8.168 115.555 8.168C113.683 8.168 111.331 8.744 109.723 9.44V5.912C111.739 5.168 114.403 4.616 116.515 4.616C120.907 4.616 122.539 6.872 122.539 10.232V17H118.483L119.011 12.944H118.795C118.027 15.992 116.347 17.384 112.675 17.384ZM114.547 14.48C116.347 14.48 118.315 13.616 118.291 11.744C115.531 11.936 112.579 12.176 112.579 13.448C112.579 14.12 113.419 14.48 114.547 14.48ZM134.399 17H129.047L122.711 5H127.271L131.735 13.448L136.175 5H140.735L134.399 17ZM147.709 17.384C143.365 17.384 140.485 14.84 140.485 11C140.485 7.16 143.365 4.616 147.709 4.616C152.005 4.616 154.861 6.8 154.933 10.064V12.032H144.685C145.069 13.472 146.389 14.144 148.909 14.144C151.837 14.144 153.037 13.4 154.405 12.824V16.208C152.341 16.976 150.925 17.384 147.709 17.384ZM144.589 10.352L150.853 10.208C150.757 8.744 149.437 7.952 147.709 7.952C146.077 7.952 144.805 8.816 144.589 10.352Z" fill="#121212"/>
</svg>
