<svg width="38" height="23" viewBox="0 0 38 23" fill="none" xmlns="http://www.w3.org/2000/svg">
<path fill-rule="evenodd" clip-rule="evenodd" d="M18.6316 20.0491C16.6582 21.7125 14.0984 22.7166 11.3011 22.7166C5.0597 22.7166 0 17.7171 0 11.55C0 5.38279 5.0597 0.383301 11.3011 0.383301C14.0984 0.383301 16.6582 1.38746 18.6316 3.05087C20.605 1.38746 23.1649 0.383301 25.9621 0.383301C32.2036 0.383301 37.2632 5.38279 37.2632 11.55C37.2632 17.7171 32.2036 22.7166 25.9621 22.7166C23.1649 22.7166 20.605 21.7125 18.6316 20.0491Z" fill="#ED0006"/>
<path fill-rule="evenodd" clip-rule="evenodd" d="M18.6309 20.0491C21.0608 18.0009 22.6015 14.9532 22.6015 11.55C22.6015 8.14671 21.0608 5.09904 18.6309 3.05087C20.6043 1.38746 23.1641 0.383301 25.9613 0.383301C32.2028 0.383301 37.2625 5.38279 37.2625 11.55C37.2625 17.7171 32.2028 22.7166 25.9613 22.7166C23.1641 22.7166 20.6043 21.7125 18.6309 20.0491Z" fill="#F9A000"/>
<path fill-rule="evenodd" clip-rule="evenodd" d="M18.6308 20.049C21.0607 18.0009 22.6014 14.9532 22.6014 11.55C22.6014 8.14673 21.0607 5.09908 18.6308 3.0509C16.2009 5.09908 14.6602 8.14673 14.6602 11.55C14.6602 14.9532 16.2009 18.0009 18.6308 20.049Z" fill="#FF5E00"/>
</svg>
