<svg width="40" height="40" viewBox="0 0 40 40" fill="none" xmlns="http://www.w3.org/2000/svg">
<path d="M19.9993 20.8334C18.4523 20.8334 16.9685 21.448 15.8746 22.5419C14.7806 23.6359 14.166 25.1196 14.166 26.6667C14.166 28.2138 14.7806 29.6975 15.8746 30.7915C16.9685 31.8855 18.4523 32.5 19.9993 32.5C21.5464 32.5 23.0302 31.8855 24.1241 30.7915C25.2181 29.6975 25.8327 28.2138 25.8327 26.6667C25.8327 25.1196 25.2181 23.6359 24.1241 22.5419C23.0302 21.448 21.5464 20.8334 19.9993 20.8334ZM17.4993 26.6667C17.4993 26.0037 17.7627 25.3678 18.2316 24.8989C18.7004 24.4301 19.3363 24.1667 19.9993 24.1667C20.6624 24.1667 21.2983 24.4301 21.7671 24.8989C22.236 25.3678 22.4993 26.0037 22.4993 26.6667C22.4993 27.3297 22.236 27.9656 21.7671 28.4345C21.2983 28.9033 20.6624 29.1667 19.9993 29.1667C19.3363 29.1667 18.7004 28.9033 18.2316 28.4345C17.7627 27.9656 17.4993 27.3297 17.4993 26.6667Z" fill="#212121"/>
<path d="M29.21 8.52672L23.9117 1.09839L4.43 16.6617L3.35 16.6501V16.6667H2.5V36.6667H37.5V16.6667H35.8967L32.7067 7.33505L29.21 8.52672ZM32.375 16.6667H15.6617L28.11 12.4234L30.6467 11.6117L32.375 16.6667ZM25.9167 9.65005L13.0667 14.0301L23.2433 5.90005L25.9167 9.65005ZM5.83333 30.2817V23.0484C6.53696 22.8001 7.17608 22.3974 7.70384 21.8699C8.2316 21.3424 8.63462 20.7035 8.88333 20.0001H31.1167C31.3652 20.7039 31.7681 21.3431 32.2959 21.8709C32.8236 22.3986 33.4629 22.8015 34.1667 23.0501V30.2834C33.4629 30.5319 32.8236 30.9348 32.2959 31.4626C31.7681 31.9904 31.3652 32.6296 31.1167 33.3334H8.88667C8.63697 32.6295 8.23327 31.9903 7.70503 31.4623C7.17679 30.9344 6.53734 30.531 5.83333 30.2817Z" fill="#212121"/>
</svg>
