<svg width="20" height="20" viewBox="0 0 20 20" fill="none" xmlns="http://www.w3.org/2000/svg">
<mask id="mask0_936_15793" style="mask-type:luminance" maskUnits="userSpaceOnUse" x="0" y="0" width="20" height="20">
<path d="M20 0H0V20H20V0Z" fill="white"/>
</mask>
<g mask="url(#mask0_936_15793)">
<path d="M5.89062 15.8316C6.74776 15.8316 7.51115 15.8316 8.35491 15.8316C8.35491 14.5435 8.35491 13.2823 8.35491 11.9941C9.46648 11.9941 10.5245 11.9941 11.6227 11.9941C11.6227 13.2554 11.6227 14.5033 11.6227 15.7915C12.4397 15.7915 13.2031 15.7915 14.0468 15.7915C13.953 15.9256 13.9262 16.0195 13.8593 16.0732C12.9352 16.9991 12.0245 17.9248 11.087 18.8507C10.4709 19.4544 9.57364 19.5081 8.95757 18.9177C7.93968 17.9516 6.96204 16.9185 5.89062 15.8316Z" fill="#212121"/>
<path d="M8.3666 8.03615C8.3666 6.74803 8.3666 5.51361 8.3666 4.19867C7.56301 4.19867 6.78622 4.19867 6.02285 4.19867C6.00945 4.09133 5.99606 4.05107 6.00945 4.03765C7.00052 3.04474 7.97818 2.02499 8.99601 1.05891C9.49157 0.575872 10.4022 0.5222 10.8978 0.991823C11.9558 2.01157 12.9468 3.09841 13.9914 4.18525C13.3754 4.18525 12.746 4.21209 12.1165 4.17183C11.7281 4.15841 11.6344 4.29259 11.6344 4.66829C11.6612 5.60753 11.6478 6.54678 11.6478 7.48602C11.6478 7.66046 11.6478 7.8483 11.6478 8.04957C10.5228 8.03615 9.47816 8.03615 8.3666 8.03615Z" fill="#212121"/>
<path d="M15.832 13.98C15.832 11.31 15.832 8.6398 15.832 6.05017C16.8767 7.04308 17.9748 8.04944 18.9927 9.10944C19.448 9.579 19.448 10.4109 19.006 10.8806C17.9883 11.9405 16.9035 12.9469 15.832 13.98Z" fill="#212121"/>
<path d="M4.1133 14.0608C3.05529 13.0142 2.03744 12.0347 1.04638 11.015C0.55085 10.4917 0.537458 9.5524 1.03299 9.02911C2.02405 7.99595 3.08206 7.01647 4.1133 6.01013C4.1133 8.65343 4.1133 11.3236 4.1133 14.0608Z" fill="#212121"/>
</g>
</svg>
