<svg width="40" height="40" viewBox="0 0 40 40" fill="none" xmlns="http://www.w3.org/2000/svg">
<g clip-path="url(#clip0_817_2741)">
<mask id="mask0_817_2741" style="mask-type:luminance" maskUnits="userSpaceOnUse" x="0" y="0" width="40" height="40">
<path d="M40 0H0V40H40V0Z" fill="white"/>
</mask>
<g mask="url(#mask0_817_2741)">
<path d="M11.7793 31.6632C13.4936 31.6632 15.0203 31.6632 16.7079 31.6632C16.7079 29.0869 16.7079 26.5645 16.7079 23.9883C18.931 23.9883 21.047 23.9883 23.2434 23.9883C23.2434 26.5109 23.2434 29.0067 23.2434 31.5829C24.8774 31.5829 26.4042 31.5829 28.0916 31.5829C27.9041 31.8512 27.8505 32.0389 27.7167 32.1464C25.8684 33.9981 24.0471 35.8496 22.1721 37.7013C20.9399 38.9088 19.1453 39.0163 17.9132 37.8355C15.8774 35.9032 13.9221 33.8371 11.7793 31.6632Z" fill="#212121"/>
<path d="M16.7312 16.0723C16.7312 13.4961 16.7312 11.0272 16.7312 8.39735C15.1241 8.39735 13.5705 8.39735 12.0437 8.39735C12.0169 8.18265 11.9902 8.10215 12.0169 8.07529C13.9991 6.08948 15.9544 4.04999 17.9901 2.11782C18.9812 1.15174 20.8025 1.0444 21.7936 1.98365C23.9096 4.02313 25.8917 6.19681 27.9809 8.37049C26.7489 8.37049 25.49 8.42417 24.2311 8.34367C23.4543 8.31681 23.2668 8.58519 23.2668 9.33657C23.3204 11.2151 23.2936 13.0936 23.2936 14.972C23.2936 15.3209 23.2936 15.6966 23.2936 16.0991C21.0436 16.0723 18.9544 16.0723 16.7312 16.0723Z" fill="#212121"/>
<path d="M31.6602 27.9601C31.6602 22.6199 31.6602 17.2796 31.6602 12.1003C33.7495 14.0862 35.9458 16.0989 37.9815 18.2189C38.8922 19.158 38.8922 20.8218 38.0082 21.7611C35.9727 23.8811 33.8031 25.8938 31.6602 27.9601Z" fill="#212121"/>
<path d="M8.22465 28.1217C6.10862 26.0283 4.07292 24.0694 2.09081 22.0299C1.09975 20.9834 1.07296 19.1048 2.06402 18.0582C4.04614 15.9919 6.16217 14.0329 8.22465 12.0203C8.22465 17.3069 8.22465 22.6472 8.22465 28.1217Z" fill="#212121"/>
</g>
</g>
<defs>
<clipPath id="clip0_817_2741">
<rect width="40" height="40" fill="white"/>
</clipPath>
</defs>
</svg>
