<svg width="21" height="22" viewBox="0 0 21 22" fill="none" xmlns="http://www.w3.org/2000/svg">
<path d="M3.33464 9.33332H1.66797M4.16797 11.8333H2.5013M2.80227 16.6746C5.93629 20.6506 11.7 21.3331 15.676 18.199C19.6519 15.065 20.3344 9.30126 17.2003 5.32534C14.0663 1.34943 8.30257 0.666935 4.32665 3.80096M5.0013 6.83332H5.32023C5.85708 6.83332 6.30781 7.23358 6.36603 7.76202L6.7926 11.6338C6.85082 12.1622 7.30155 12.5625 7.8384 12.5625H12.3896C12.8705 12.5625 13.2901 12.2396 13.409 11.7782L14.1348 8.95993C14.3044 8.30131 13.8019 7.66086 13.1154 7.66086H6.89492M6.90794 14.4505H7.30244M6.90794 14.8411H7.30244M12.694 14.4505H13.0885M12.694 14.8411H13.0885M7.63132 14.6458C7.63132 14.9335 7.39582 15.1666 7.10532 15.1666C6.81482 15.1666 6.57932 14.9335 6.57932 14.6458C6.57932 14.3582 6.81482 14.125 7.10532 14.125C7.39582 14.125 7.63132 14.3582 7.63132 14.6458ZM13.4174 14.6458C13.4174 14.9335 13.1819 15.1666 12.8914 15.1666C12.6009 15.1666 12.3654 14.9335 12.3654 14.6458C12.3654 14.3582 12.6009 14.125 12.8914 14.125C13.1819 14.125 13.4174 14.3582 13.4174 14.6458Z" stroke="#212121" stroke-width="2" stroke-linecap="round"/>
</svg>
