<svg width="21" height="20" viewBox="0 0 21 20" fill="none" xmlns="http://www.w3.org/2000/svg">
<path d="M3.38002 6.0333L4.23751 6.5478V6.5478L3.38002 6.0333ZM4.72319 3.79468L5.58069 4.30917V4.30917L4.72319 3.79468ZM16.2768 3.79468L15.4193 4.30917V4.30917L16.2768 3.79468ZM17.62 6.0333L16.7625 6.5478L17.62 6.0333ZM15.0634 2.57899L14.7592 3.5316L14.7592 3.5316L15.0634 2.57899ZM15.6569 2.91505L16.3172 2.16408L16.3172 2.16407L15.6569 2.91505ZM5.34309 2.91505L6.00343 3.66602L6.00343 3.66602L5.34309 2.91505ZM5.93663 2.57899L5.63241 1.62639L5.63241 1.62639L5.93663 2.57899ZM17.9781 6.85928L16.9913 7.0207L16.9913 7.0207L17.9781 6.85928ZM17.8822 6.51275L18.8115 6.14342L18.8115 6.14341L17.8822 6.51275ZM17.09 17.3183L16.636 16.4273H16.636L17.09 17.3183ZM17.8183 16.59L16.9273 16.136V16.136L17.8183 16.59ZM3.18166 16.59L2.29065 17.044L2.29065 17.044L3.18166 16.59ZM3.91002 17.3183L4.36401 16.4273L4.364 16.4273L3.91002 17.3183ZM3.02186 6.85928L2.03497 6.69786L3.02186 6.85928ZM3.11784 6.51275L2.18854 6.14341H2.18854L3.11784 6.51275ZM3.83333 5.66667C3.28105 5.66667 2.83333 6.11438 2.83333 6.66667C2.83333 7.21895 3.28105 7.66667 3.83333 7.66667V5.66667ZM17.1667 7.66667C17.719 7.66667 18.1667 7.21895 18.1667 6.66667C18.1667 6.11438 17.719 5.66667 17.1667 5.66667V7.66667ZM14 10C14 9.44772 13.5523 9 13 9C12.4477 9 12 9.44772 12 10H14ZM9 10C9 9.44772 8.55228 9 8 9C7.44772 9 7 9.44772 7 10H9ZM2 7.40529V14.8333H4V7.40529H2ZM5.66667 18.5H15.3333V16.5H5.66667V18.5ZM19 14.8333V7.40529H17V14.8333H19ZM4.23751 6.5478L5.58069 4.30917L3.8657 3.28018L2.52253 5.51881L4.23751 6.5478ZM7.00984 3.5H13.9902V1.5H7.00984V3.5ZM15.4193 4.30917L16.7625 6.5478L18.4775 5.51881L17.1343 3.28018L15.4193 4.30917ZM13.9902 3.5C14.6068 3.5 14.6954 3.51124 14.7592 3.5316L15.3676 1.62639C14.9366 1.48876 14.4746 1.5 13.9902 1.5V3.5ZM17.1343 3.28018C16.885 2.86473 16.657 2.46281 16.3172 2.16408L14.9966 3.66602C15.0468 3.71022 15.1021 3.7804 15.4193 4.30917L17.1343 3.28018ZM14.7592 3.5316C14.8467 3.55956 14.9275 3.60532 14.9966 3.66602L16.3172 2.16407C16.0411 1.9213 15.7178 1.73824 15.3676 1.62639L14.7592 3.5316ZM5.58069 4.30917C5.89795 3.7804 5.95316 3.71022 6.00343 3.66602L4.68276 2.16408C4.34302 2.46281 4.11497 2.86474 3.8657 3.28018L5.58069 4.30917ZM7.00984 1.5C6.52535 1.5 6.06337 1.48876 5.63241 1.62639L6.24084 3.5316C6.3046 3.51124 6.39319 3.5 7.00984 3.5V1.5ZM6.00343 3.66602C6.07245 3.60532 6.15328 3.55956 6.24084 3.5316L5.63241 1.62639C5.28218 1.73824 4.95886 1.9213 4.68276 2.16408L6.00343 3.66602ZM19 7.40529C19 7.16179 19.003 6.93006 18.965 6.69786L16.9913 7.0207C16.997 7.05575 17 7.09895 17 7.40529H19ZM16.7625 6.5478C16.9201 6.81048 16.9397 6.84907 16.9529 6.88209L18.8115 6.14341C18.7246 5.92476 18.6028 5.72761 18.4775 5.51881L16.7625 6.5478ZM18.965 6.69786C18.934 6.50805 18.8825 6.32215 18.8115 6.14342L16.9529 6.88207C16.9706 6.92676 16.9835 6.97324 16.9913 7.0207L18.965 6.69786ZM15.3333 18.5C15.7835 18.5 16.1813 18.5008 16.5094 18.474C16.8492 18.4462 17.2012 18.384 17.544 18.2094L16.636 16.4273C16.6222 16.4344 16.5626 16.463 16.3466 16.4806C16.1188 16.4992 15.8165 16.5 15.3333 16.5V18.5ZM17 14.8333C17 15.3165 16.9992 15.6188 16.9806 15.8466C16.963 16.0626 16.9344 16.1222 16.9273 16.136L18.7094 17.044C18.884 16.7012 18.9462 16.3492 18.974 16.0094C19.0008 15.6813 19 15.2835 19 14.8333H17ZM17.544 18.2094C18.0457 17.9537 18.4537 17.5457 18.7094 17.044L16.9273 16.136C16.8634 16.2614 16.7614 16.3634 16.636 16.4273L17.544 18.2094ZM2 14.8333C2 15.2835 1.99922 15.6813 2.02603 16.0094C2.05379 16.3492 2.11602 16.7012 2.29065 17.044L4.07266 16.136C4.06564 16.1222 4.03704 16.0626 4.01939 15.8466C4.00078 15.6188 4 15.3165 4 14.8333H2ZM5.66667 16.5C5.18346 16.5 4.88119 16.4992 4.65344 16.4806C4.43736 16.463 4.3778 16.4344 4.36401 16.4273L3.45603 18.2094C3.79875 18.384 4.15081 18.4462 4.49057 18.474C4.81866 18.5008 5.21646 18.5 5.66667 18.5V16.5ZM2.29065 17.044C2.54631 17.5457 2.95426 17.9537 3.45603 18.2094L4.364 16.4273C4.23857 16.3634 4.13658 16.2614 4.07266 16.136L2.29065 17.044ZM4 7.40529C4 7.09895 4.00301 7.05575 4.00874 7.0207L2.03497 6.69786C1.99699 6.93006 2 7.16179 2 7.40529H4ZM2.52253 5.51881C2.39724 5.72761 2.27544 5.92477 2.18854 6.14341L4.04714 6.88208C4.06025 6.84907 4.0799 6.81048 4.23751 6.5478L2.52253 5.51881ZM4.00874 7.0207C4.0165 6.97324 4.02938 6.92677 4.04714 6.88208L2.18854 6.14341C2.11751 6.32215 2.06602 6.50805 2.03497 6.69786L4.00874 7.0207ZM3.83333 7.66667H17.1667V5.66667H3.83333V7.66667ZM12 10C12 10.8284 11.3284 11.5 10.5 11.5V13.5C12.433 13.5 14 11.933 14 10H12ZM10.5 11.5C9.67157 11.5 9 10.8284 9 10H7C7 11.933 8.567 13.5 10.5 13.5V11.5Z" fill="#999999"/>
</svg>
