<svg width="18" height="18" viewBox="0 0 18 18" fill="none" xmlns="http://www.w3.org/2000/svg">
<path d="M15.3215 1.5H2.67851C2.02764 1.5 1.5 2.02764 1.5 2.67851C1.5 2.99107 1.62416 3.29083 1.84518 3.51184L5.91421 7.58088C6.28929 7.95595 6.5 8.46466 6.5 8.99509V12.7639C6.5 13.5215 6.92801 14.214 7.60557 14.5528L10.7764 16.1382C11.1088 16.3044 11.5 16.0627 11.5 15.691V8.99509C11.5 8.46466 11.7107 7.95595 12.0858 7.58088L16.1548 3.51184C16.3758 3.29083 16.5 2.99107 16.5 2.67851C16.5 2.02764 15.9724 1.5 15.3215 1.5Z" stroke="#212121" stroke-width="2" stroke-linecap="round"/>
</svg>
