<svg width="36" height="36" viewBox="0 0 36 36" fill="#121212" xmlns="http://www.w3.org/2000/svg">
<path d="M0 18C0 8.05888 8.05888 0 18 0C27.9411 0 36 8.05888 36 18C36 27.9411 27.9411 36 18 36C8.05888 36 0 27.9411 0 18Z" fill="#FDFDFD" fill-opacity="0.1"/>
<path d="M23.7444 23.0297L24.7444 23.0386L23.7444 23.0297ZM11.334 12C10.7817 12 10.334 12.4477 10.334 13C10.334 13.5522 10.7817 14 11.334 14V12ZM24.6673 14C25.2196 14 25.6673 13.5522 25.6673 13C25.6673 12.4477 25.2196 12 24.6673 12V14ZM17.334 16.3333C17.334 15.781 16.8863 15.3333 16.334 15.3333C15.7817 15.3333 15.334 15.781 15.334 16.3333H17.334ZM15.334 23C15.334 23.5522 15.7817 24 16.334 24C16.8863 24 17.334 23.5522 17.334 23H15.334ZM20.6673 16.3333C20.6673 15.781 20.2196 15.3333 19.6673 15.3333C19.115 15.3333 18.6673 15.781 18.6673 16.3333H20.6673ZM18.6673 23C18.6673 23.5522 19.115 24 19.6673 24C20.2196 24 20.6673 23.5522 20.6673 23H18.6673ZM22.834 12.991L22.7445 23.0208L24.7444 23.0386L24.8339 13.0089L22.834 12.991ZM20.4112 25.3333H15.5006V27.3333H20.4112V25.3333ZM11.1673 13V23H13.1673V13H11.1673ZM11.334 14H12.1673V12H11.334V14ZM12.1673 14H14.6673V12H12.1673V14ZM14.6673 14H21.334V12H14.6673V14ZM21.334 14H23.834V12H21.334V14ZM23.834 14H24.6673V12H23.834V14ZM15.6673 12.6296C15.6673 11.6529 16.598 10.6666 18.0007 10.6666V8.66663C15.7214 8.66663 13.6673 10.3334 13.6673 12.6296H15.6673ZM18.0007 10.6666C19.4033 10.6666 20.334 11.6529 20.334 12.6296H22.334C22.334 10.3334 20.2799 8.66663 18.0007 8.66663V10.6666ZM13.6673 12.6296V13H15.6673V12.6296H13.6673ZM20.334 12.6296V13H22.334V12.6296H20.334ZM15.5006 25.3333C14.212 25.3333 13.1673 24.2886 13.1673 23H11.1673C11.1673 25.3932 13.1074 27.3333 15.5006 27.3333V25.3333ZM22.7445 23.0208C22.733 24.3013 21.6918 25.3333 20.4112 25.3333V27.3333C22.7894 27.3333 24.7232 25.4167 24.7444 23.0386L22.7445 23.0208ZM15.334 16.3333V23H17.334V16.3333H15.334ZM18.6673 16.3333V23H20.6673V16.3333H18.6673Z" />
</svg>
